<svg xmlns="http://www.w3.org/2000/svg" viewBox="0 0 512 512" style="height: 512px; width: 512px;"><g class="" transform="translate(0,0)" style=""><path d="M123.2 42l6 30h254l6-30zm9.6 48l2.8 14h241.2l2.8-14zm-20.6 32c-17.95 2.5-42.45 24.1-48.5 37.6-2.24 5.5-2.26 9.3-.21 13 4.38 7.7 7.04 8.3 12.68 7.8 5.63-.4 14.26-4.2 23.62-9.3 9.31-5.2 19.51-11.5 30.01-15.9 10.6-4.4 22.4-7.2 33.8-2.5 8.7 3.5 14.5 10.5 18.6 17.7 7.9 12.8 9.7 27.7 18.1 39.6 2.9 4.1 5.1 5.7 8.8 6.1v-.1c5 .6 8.4-1.2 13.2-5.9 12.6-14.1 19.9-31.8 31.8-44.8 6.8-7.2 15.9-13.3 27.1-13.3 9.1 0 16.6 4.8 21.9 10.4 10.1 10 14.4 23.2 24.1 33.1 3.4 3.5 5.6 4.6 8.7 4.5 4.2-1 6.7-6.6 8.8-10 4.2-7.2 8.9-17.9 20.8-21.6 20.9-4.7 38.3 7.5 54.7 16.6 7.8 4.3 15 7.4 19.6 7.9 4.5.6 6.2.4 9.7-4.9 3.4-5.1 3.6-10.5 1.1-17.7-9.4-21.6-30.4-39.9-50.4-48.3zm38.4 46.3c-12.8 1.2-24.2 8.4-34.4 14.1-14.1 65.9-7.8 151 52.8 183.9-21.6-58.6-13.2-113.4 7.1-164.8-5-11.8-9.8-27.6-19.3-32.2-1.8-.7-3.9-1.1-6.2-1zm-96.65 21.1c-6.76 25.6-9.74 53.9-8.89 81.9 1.03 34 7.67 67.5 20.63 95.3 11.39 24.3 27.96 44.4 50.21 55l-12.7 25.3v2.1c.8 10.4 12.3 12.7 19.7 14.1 8.5 1.6 20 2.9 33.6 3.9 27.4 2 63.5 3 99.7 3s72.3-1 99.7-3c13.6-1 25.1-2.3 33.6-3.9 8.4-1.5 19.5-4.8 19.7-14.1-3.2-9.5-8.2-18.6-12.6-27.4 22.1-10.6 38.6-30.7 49.9-55.1 12.9-27.7 19.5-61.2 20.5-95.2.8-23.4-1.2-47.1-5.8-69.2-4.7 4.9-10.7 7.7-16.7 8.6 3.6 19.2 5.2 39.7 4.6 60-1 32-7.4 63.5-18.9 88.3-11.3 24.3-27.3 41.7-47.7 49H129.9c-20.5-7.3-36.53-24.7-47.9-49.1-11.59-24.7-17.98-56.2-18.95-88.2-.75-24.9 1.77-50 7.3-72.7-5.86-1-11.62-3.9-16.4-8.6zM133.8 426h244.8l9.5 18.9c-11.3 2.3-24 3.4-33.6 4.1-26.6 2-62.5 3-98.3 3s-71.7-1-98.3-3c-15.2-.8-23.4-1.3-33.6-4.1z" fill="#000000" fill-opacity="0.001"></path></g><g class="" transform="translate(224,227)" style=""><g><circle cx="128" cy="128" r="128" fill="#000" fill-opacity="1"></circle><circle stroke="#ffffff" stroke-opacity="1" fill="#000" fill-opacity="1" stroke-width="18" cx="128" cy="128" r="101"></circle><path fill="#ffffff" fill-opacity="1" d="M86.11 188.2v-23.3q7.78 3.6 14.89 5.5 7.1 1.7 14.1 1.7 14.5 0 22.6-8 8.2-8.1 9.6-24-5.8 4.2-12.3 6.3-6.5 2.1-14.1 2.1-19.4 0-31.32-11.2-11.85-11.4-11.85-29.8 0-20.42 13.2-32.69 13.27-12.28 35.57-12.28 24.7 0 38.2 16.68 13.6 16.67 13.6 47.09 0 31.4-15.9 49.3-15.8 17.9-43.4 17.9-8.9 0-17-1.4-8.11-1.3-15.89-3.9zm40.19-60.8q8.6 0 12.9-5.5 4.3-5.6 4.3-16.7 0-11.01-4.3-16.6-4.3-5.58-12.9-5.58-8.5 0-12.9 5.58-4.3 5.59-4.3 16.6 0 11.1 4.3 16.7 4.4 5.5 12.9 5.5z"></path></g></g></svg>