<svg xmlns="http://www.w3.org/2000/svg" viewBox="0 0 512 512" style="height: 512px; width: 512px;"><g class="" transform="translate(-2,1)" style=""><g transform="translate(0, 0) scale(1, 1) rotate(-90, 256, 256) skewX(0) skewY(0)"><path d="M196 16L256 76L316 16L196 16Z" class="" fill="#000000" fill-opacity="1"></path><path d="M166 106L256 196L346 106L166 106Z" class="" fill="#000000" fill-opacity="1"></path><path d="M136 226L256 346L376 226L136 226Z" class="" fill="#000000" fill-opacity="1"></path><path d="M257.75 376.03C223.943 375.044 196.003 402.179 196 436C196 482.188 246 511.056 286 487.962C304.564 477.244 316 457.436 316 436C315.998 403.546 290.19 376.977 257.75 376.03Z" class="selected" fill="#ffffff" fill-opacity="0"></path></g></g></svg>